<svg id="visual" viewBox="0 0 1920 1080" width="1920" height="1080" xmlns="http://www.w3.org/2000/svg" xmlns:xlink="http://www.w3.org/1999/xlink" version="1.1"><rect x="0" y="0" width="1920" height="1080" fill="#ffffff"></rect><path d="M862 1080L859 1054.3C856 1028.7 850 977.3 879.2 925.8C908.3 874.3 972.7 822.7 971.3 771.2C970 719.7 903 668.3 851.3 617C799.7 565.7 763.3 514.3 798.3 463C833.3 411.7 939.7 360.3 943.3 308.8C947 257.3 848 205.7 834 154.2C820 102.7 891 51.3 926.5 25.7L962 0L1920 0L1920 25.7C1920 51.3 1920 102.7 1920 154.2C1920 205.7 1920 257.3 1920 308.8C1920 360.3 1920 411.7 1920 463C1920 514.3 1920 565.7 1920 617C1920 668.3 1920 719.7 1920 771.2C1920 822.7 1920 874.3 1920 925.8C1920 977.3 1920 1028.7 1920 1054.3L1920 1080Z" fill="#84cc16"></path><path d="M1151 1080L1144.7 1054.3C1138.3 1028.7 1125.7 977.3 1081.8 925.8C1038 874.3 963 822.7 913.8 771.2C864.7 719.7 841.3 668.3 857.3 617C873.3 565.7 928.7 514.3 978.3 463C1028 411.7 1072 360.3 1080.3 308.8C1088.7 257.3 1061.3 205.7 1029.7 154.2C998 102.7 962 51.3 944 25.7L926 0L1920 0L1920 25.7C1920 51.3 1920 102.7 1920 154.2C1920 205.7 1920 257.3 1920 308.8C1920 360.3 1920 411.7 1920 463C1920 514.3 1920 565.7 1920 617C1920 668.3 1920 719.7 1920 771.2C1920 822.7 1920 874.3 1920 925.8C1920 977.3 1920 1028.7 1920 1054.3L1920 1080Z" fill="#79bc18"></path><path d="M994 1080L1034 1054.3C1074 1028.7 1154 977.3 1158.5 925.8C1163 874.3 1092 822.7 1055.5 771.2C1019 719.7 1017 668.3 1025.8 617C1034.7 565.7 1054.3 514.3 1046.8 463C1039.3 411.7 1004.7 360.3 1015 308.8C1025.3 257.3 1080.7 205.7 1071.3 154.2C1062 102.7 988 51.3 951 25.7L914 0L1920 0L1920 25.7C1920 51.3 1920 102.7 1920 154.2C1920 205.7 1920 257.3 1920 308.8C1920 360.3 1920 411.7 1920 463C1920 514.3 1920 565.7 1920 617C1920 668.3 1920 719.7 1920 771.2C1920 822.7 1920 874.3 1920 925.8C1920 977.3 1920 1028.7 1920 1054.3L1920 1080Z" fill="#6fac19"></path><path d="M1226 1080L1208.3 1054.3C1190.7 1028.7 1155.3 977.3 1138.3 925.8C1121.3 874.3 1122.7 822.7 1135.7 771.2C1148.7 719.7 1173.3 668.3 1191.8 617C1210.3 565.7 1222.7 514.3 1222.7 463C1222.7 411.7 1210.3 360.3 1214.3 308.8C1218.3 257.3 1238.7 205.7 1216.5 154.2C1194.3 102.7 1129.7 51.3 1097.3 25.7L1065 0L1920 0L1920 25.7C1920 51.3 1920 102.7 1920 154.2C1920 205.7 1920 257.3 1920 308.8C1920 360.3 1920 411.7 1920 463C1920 514.3 1920 565.7 1920 617C1920 668.3 1920 719.7 1920 771.2C1920 822.7 1920 874.3 1920 925.8C1920 977.3 1920 1028.7 1920 1054.3L1920 1080Z" fill="#659c19"></path><path d="M1352 1080L1361.2 1054.3C1370.3 1028.7 1388.7 977.3 1374.8 925.8C1361 874.3 1315 822.7 1316.2 771.2C1317.3 719.7 1365.7 668.3 1376.5 617C1387.3 565.7 1360.7 514.3 1332 463C1303.3 411.7 1272.7 360.3 1281.2 308.8C1289.7 257.3 1337.3 205.7 1364.8 154.2C1392.3 102.7 1399.7 51.3 1403.3 25.7L1407 0L1920 0L1920 25.7C1920 51.3 1920 102.7 1920 154.2C1920 205.7 1920 257.3 1920 308.8C1920 360.3 1920 411.7 1920 463C1920 514.3 1920 565.7 1920 617C1920 668.3 1920 719.7 1920 771.2C1920 822.7 1920 874.3 1920 925.8C1920 977.3 1920 1028.7 1920 1054.3L1920 1080Z" fill="#5b8d19"></path><path d="M1492 1080L1480.7 1054.3C1469.3 1028.7 1446.7 977.3 1437.8 925.8C1429 874.3 1434 822.7 1431.5 771.2C1429 719.7 1419 668.3 1399.8 617C1380.7 565.7 1352.3 514.3 1362.3 463C1372.3 411.7 1420.7 360.3 1418.7 308.8C1416.7 257.3 1364.3 205.7 1359.2 154.2C1354 102.7 1396 51.3 1417 25.7L1438 0L1920 0L1920 25.7C1920 51.3 1920 102.7 1920 154.2C1920 205.7 1920 257.3 1920 308.8C1920 360.3 1920 411.7 1920 463C1920 514.3 1920 565.7 1920 617C1920 668.3 1920 719.7 1920 771.2C1920 822.7 1920 874.3 1920 925.8C1920 977.3 1920 1028.7 1920 1054.3L1920 1080Z" fill="#517e18"></path><path d="M1566 1080L1570.5 1054.3C1575 1028.7 1584 977.3 1571.2 925.8C1558.3 874.3 1523.7 822.7 1501 771.2C1478.3 719.7 1467.7 668.3 1459.3 617C1451 565.7 1445 514.3 1442.8 463C1440.7 411.7 1442.3 360.3 1464.5 308.8C1486.7 257.3 1529.3 205.7 1527.5 154.2C1525.7 102.7 1479.3 51.3 1456.2 25.7L1433 0L1920 0L1920 25.7C1920 51.3 1920 102.7 1920 154.2C1920 205.7 1920 257.3 1920 308.8C1920 360.3 1920 411.7 1920 463C1920 514.3 1920 565.7 1920 617C1920 668.3 1920 719.7 1920 771.2C1920 822.7 1920 874.3 1920 925.8C1920 977.3 1920 1028.7 1920 1054.3L1920 1080Z" fill="#486f17"></path><path d="M1612 1080L1607.2 1054.3C1602.3 1028.7 1592.7 977.3 1585.3 925.8C1578 874.3 1573 822.7 1586.2 771.2C1599.3 719.7 1630.7 668.3 1639.5 617C1648.3 565.7 1634.7 514.3 1626.8 463C1619 411.7 1617 360.3 1613.8 308.8C1610.7 257.3 1606.3 205.7 1621 154.2C1635.7 102.7 1669.3 51.3 1686.2 25.7L1703 0L1920 0L1920 25.7C1920 51.3 1920 102.7 1920 154.2C1920 205.7 1920 257.3 1920 308.8C1920 360.3 1920 411.7 1920 463C1920 514.3 1920 565.7 1920 617C1920 668.3 1920 719.7 1920 771.2C1920 822.7 1920 874.3 1920 925.8C1920 977.3 1920 1028.7 1920 1054.3L1920 1080Z" fill="#3f6116"></path><path d="M1719 1080L1724 1054.3C1729 1028.7 1739 977.3 1736.2 925.8C1733.3 874.3 1717.7 822.7 1713.8 771.2C1710 719.7 1718 668.3 1741 617C1764 565.7 1802 514.3 1799.8 463C1797.7 411.7 1755.3 360.3 1751.2 308.8C1747 257.3 1781 205.7 1794.7 154.2C1808.3 102.7 1801.7 51.3 1798.3 25.7L1795 0L1920 0L1920 25.7C1920 51.3 1920 102.7 1920 154.2C1920 205.7 1920 257.3 1920 308.8C1920 360.3 1920 411.7 1920 463C1920 514.3 1920 565.7 1920 617C1920 668.3 1920 719.7 1920 771.2C1920 822.7 1920 874.3 1920 925.8C1920 977.3 1920 1028.7 1920 1054.3L1920 1080Z" fill="#365314"></path></svg>